<svg width="100" height="100" viewBox="0 0 100 100" fill="none" xmlns="http://www.w3.org/2000/svg">
<path d="M50 0L100 50L50 100L0 50L50 0Z" fill="white"/>
<path d="M63 36.6451H37V68H63V36.6451Z" stroke="#3B1E1C" stroke-miterlimit="10" stroke-linecap="round" stroke-linejoin="round"/>
<path d="M37 36.6452L57.3478 32V33.7419" stroke="#3B1E1C" stroke-miterlimit="10" stroke-linecap="round" stroke-linejoin="round"/>
<path d="M55.0869 44.1935V51.7419" stroke="#3B1E1C" stroke-miterlimit="10" stroke-linecap="round" stroke-linejoin="round"/>
<path d="M52.8262 51.7419V44.1935" stroke="#3B1E1C" stroke-miterlimit="10" stroke-linecap="round" stroke-linejoin="round"/>
<path d="M52.2611 56.9677C51.2437 56.329 50.5654 55.2838 50.5654 54.0645V45.3548" stroke="#3B1E1C" stroke-miterlimit="10" stroke-linecap="round" stroke-linejoin="round"/>
<path d="M57.348 45.3548V54.0645C57.348 55.2838 56.6697 56.329 55.6523 56.9677V64.5161" stroke="#3B1E1C" stroke-miterlimit="10" stroke-linecap="round" stroke-linejoin="round"/>
<path d="M52.2607 56.9678V68" stroke="#3B1E1C" stroke-miterlimit="10" stroke-linecap="round" stroke-linejoin="round"/>
<path d="M52.2607 56.9678L53.3912 57.5484" stroke="#3B1E1C" stroke-miterlimit="10" stroke-linecap="round" stroke-linejoin="round"/>
<path d="M44.348 61.0323L42.6523 58.7097V50.5806C42.6523 47.0968 44.348 44.1935 47.1741 44.1935V64.5161" stroke="#3B1E1C" stroke-miterlimit="10" stroke-linecap="round" stroke-linejoin="round"/>
<path d="M43.7822 60.4517V68" stroke="#3B1E1C" stroke-miterlimit="10" stroke-linecap="round" stroke-linejoin="round"/>
</svg>
