<svg width="38" height="38" viewBox="0 0 38 38" fill="none" xmlns="http://www.w3.org/2000/svg">
<path d="M19 0L38 19L19 38L0 19L19 0Z" fill="#3B1E1C"/>
<path d="M14.0382 24.6C13.8749 24.6 13.7116 24.5375 13.5865 24.4137C13.3377 24.1649 13.3377 23.7605 13.5865 23.5117L23.5112 13.5879C23.76 13.3391 24.1645 13.3391 24.4133 13.5879C24.6621 13.8367 24.6621 14.2411 24.4133 14.4899L14.4886 24.4137C14.3649 24.5375 14.2015 24.6 14.0382 24.6Z" fill="#FEF3E1"/>
<path d="M23.9629 24.6C23.7995 24.6 23.6362 24.5375 23.5112 24.4137L13.5865 14.4886C13.3377 14.2398 13.3377 13.8354 13.5865 13.5866C13.8353 13.3378 14.2398 13.3378 14.4886 13.5866L24.4133 23.5104C24.6621 23.7592 24.6621 24.1636 24.4133 24.4124C24.2895 24.5375 24.1262 24.6 23.9629 24.6Z" fill="#FEF3E1"/>
</svg>
