<svg width="38" height="38" viewBox="0 0 38 38" fill="none" xmlns="http://www.w3.org/2000/svg">
<path d="M26.8001 6.79699C29.2001 5.05786 35.6201 3.95641 37.0001 3.89844C33.4001 7.95641 37.1801 14.739 34.0001 18.9709C30.1601 24.0723 23.5601 21.2897 23.5601 21.2897" stroke="#3B1E1C" strokeMiterlimit="10" strokeLinecap="round" strokeLinejoin="round"/>
<path d="M12.4 17.232C10.36 14.7392 5.8 14.3335 1 14.9132C3.88 17.3479 2.2 23.4929 5.2 26.5074C8.8 30.1595 13.6 27.0871 13.6 27.0871" stroke="#3B1E1C" strokeMiterlimit="10" strokeLinecap="round" strokeLinejoin="round"/>
<path d="M28.8399 12.3042C25.9599 14.3912 23.6799 19.5506 22.5999 24.4781C22.1199 26.797 21.9999 29.1738 22.1799 31.5506L22.3599 33.4636C22.5399 35.3767 20.9799 36.9999 18.9999 36.9999C17.0799 36.9999 15.5199 35.4346 15.6399 33.5796L15.6999 32.652C15.7599 31.4926 15.5799 30.3911 15.1599 29.2897C13.9599 26.4491 11.7399 23.4346 8.85986 21.3477" stroke="#3B1E1C" strokeMiterlimit="10" strokeLinecap="round" strokeLinejoin="round"/>
<path d="M14.2 2.15918V11.4345C14.2 13.5215 15.6399 15.3186 17.6799 15.8983" stroke="#3B1E1C" strokeMiterlimit="10" strokeLinecap="round" strokeLinejoin="round"/>
<path d="M17.1997 1V10.8551" stroke="#3B1E1C" strokeMiterlimit="10" strokeLinecap="round" strokeLinejoin="round"/>
<path d="M20.1997 1V10.8551" stroke="#3B1E1C" strokeMiterlimit="10" strokeLinecap="round" strokeLinejoin="round"/>
<path d="M23.1996 2.15918V11.4345C23.1996 13.1157 22.2996 14.565 20.8596 15.4345L21.1596 19.0287" stroke="#3B1E1C" strokeMiterlimit="10" strokeLinecap="round" strokeLinejoin="round"/>
<path d="M16.1199 23.6086L16.5999 15.4927" stroke="#3B1E1C" strokeMiterlimit="10" strokeLinecap="round" strokeLinejoin="round"/>
</svg>
