<svg width="51" height="51" viewBox="0 0 51 51" fill="none" xmlns="http://www.w3.org/2000/svg">
<g clipPath="url(#clip0_201_5128)">
<rect x="25.4561" y="0.707107" width="35" height="35" transform="rotate(45 25.4561 0.707107)" stroke="#3B1E1C"/>
<rect x="25.4561" y="50" width="36" height="36" transform="rotate(45 25.4561 50)" fill="#3B1E1C"/>
<path d="M26.1685 25.7091H28.681L29.0755 23.0296H26.168V21.5651C26.168 20.452 26.5145 19.4649 27.5063 19.4649H29.1V17.1266C28.82 17.0869 28.2278 17 27.1087 17C24.772 17 23.4021 18.2955 23.4021 21.247V23.0296H21V25.7091H23.4021V33.0739C23.8778 33.149 24.3597 33.2 24.8543 33.2C25.3014 33.2 25.7378 33.1571 26.1685 33.0959V25.7091Z" fill="#3B1E1C"/>
</g>
<defs>
<clipPath id="clip0_201_5128">
<rect width="36" height="36" fill="white" transform="translate(25.4561) rotate(45)"/>
</clipPath>
</defs>
</svg>
