<svg width="70" height="68" viewBox="0 0 70 68" fill="none" xmlns="http://www.w3.org/2000/svg">
<path d="M5.97877 28.2172L0.00584921 34.018L34.9944 67.9982L40.9674 62.1974L5.97877 28.2172Z" fill="#3B1E1C"/>
<path d="M34.9989 0.0221676L29.026 5.82295L64.0146 39.8032L69.9875 34.0024L34.9989 0.0221676Z" fill="#3B1E1C"/>
<path d="M34.9886 0L0 33.9802L5.97291 39.781L40.9615 5.80078L34.9886 0Z" fill="#3B1E1C"/>
<path d="M39.879 51.6577L29.0247 62.1992L34.9976 68L45.8519 57.4585L39.879 51.6577Z" fill="#3B1E1C"/>
<path d="M43.517 36.4989L37.5441 42.2997L55.0384 59.2898L61.0113 53.489L43.517 36.4989Z" fill="#3B1E1C"/>
<path d="M64.0271 28.2131L53.1727 38.7546L59.1457 44.5554L70 34.0139L64.0271 28.2131Z" fill="#3B1E1C"/>
</svg>
