<svg width="22" height="24" viewBox="0 0 22 24" fill="none" xmlns="http://www.w3.org/2000/svg">
<path d="M19 3.83868H4V22.9999H19V3.83868Z" stroke="#3B1E1C" strokeMiterlimit="10" strokeLinecap="round" strokeLinejoin="round"/>
<path d="M4.00024 3.8387L15.7394 1V2.06451" stroke="#3B1E1C" strokeMiterlimit="10" strokeLinecap="round" strokeLinejoin="round"/>
<path d="M14.4348 8.4516V13.0645" stroke="#3B1E1C" strokeMiterlimit="10" strokeLinecap="round" strokeLinejoin="round"/>
<path d="M13.1306 13.0645V8.4516" stroke="#3B1E1C" strokeMiterlimit="10" strokeLinecap="round" strokeLinejoin="round"/>
<path d="M12.8044 16.2579C12.2175 15.8676 11.8262 15.2289 11.8262 14.4838V9.16119" stroke="#3B1E1C" strokeMiterlimit="10" strokeLinecap="round" strokeLinejoin="round"/>
<path d="M15.739 9.16119V14.4838C15.739 15.2289 15.3477 15.8676 14.7607 16.2579V20.8708" stroke="#3B1E1C" strokeMiterlimit="10" strokeLinecap="round" strokeLinejoin="round"/>
<path d="M12.804 16.258V22.9999" stroke="#3B1E1C" strokeMiterlimit="10" strokeLinecap="round" strokeLinejoin="round"/>
<path d="M12.804 16.258L13.4561 16.6128" stroke="#3B1E1C" strokeMiterlimit="10" strokeLinecap="round" strokeLinejoin="round"/>
<path d="M8.23925 18.7419L7.26099 17.3225V12.3548C7.26099 10.2258 8.23925 8.4516 9.86968 8.4516V20.8709" stroke="#3B1E1C" strokeMiterlimit="10" strokeLinecap="round" strokeLinejoin="round"/>
<path d="M7.91309 18.387V22.9999" stroke="#3B1E1C" strokeMiterlimit="10" strokeLinecap="round" strokeLinejoin="round"/>
</svg>
