<svg width="51" height="51" viewBox="0 0 51 51" fill="none" xmlns="http://www.w3.org/2000/svg">
<g clipPath="url(#clip0_201_3248)">
<rect x="25.4561" y="0.707107" width="35" height="35" transform="rotate(45 25.4561 0.707107)" stroke="#3B1E1C"/>
<rect x="25.4561" y="50" width="36" height="36" transform="rotate(45 25.4561 50)" fill="#3B1E1C"/>
<path d="M25 25C27.0711 25 28.75 23.3211 28.75 21.25C28.75 19.1789 27.0711 17.5 25 17.5C22.9289 17.5 21.25 19.1789 21.25 21.25C21.25 23.3211 22.9289 25 25 25Z" stroke="#3B1E1C" strokeLinecap="round" strokeLinejoin="round"/>
<path d="M31.4426 32.5C31.4426 29.5975 28.5551 27.25 25.0001 27.25C21.4451 27.25 18.5576 29.5975 18.5576 32.5" stroke="#3B1E1C" strokeLinecap="round" strokeLinejoin="round"/>
</g>
<defs>
<clipPath id="clip0_201_3248">
<rect width="36" height="36" fill="white" transform="translate(25.4561) rotate(45)"/>
</clipPath>
</defs>
</svg>
