<svg width="18" height="18" viewBox="0 0 18 18" fill="none" xmlns="http://www.w3.org/2000/svg">
<path d="M1.50006 1.5H2.80507C3.61507 1.5 4.25256 2.1975 4.18506 3L3.56256 10.47C3.45756 11.6925 4.42506 12.7425 5.65506 12.7425H13.6426C14.7226 12.7425 15.6676 11.8575 15.7501 10.785L16.1551 5.16C16.2451 3.915 15.3001 2.9025 14.0476 2.9025H4.36507" stroke="#3B1E1C" strokeMiterlimit="10" strokeLinecap="round" strokeLinejoin="round"/>
<path d="M12.1876 16.5C12.7053 16.5 13.1251 16.0803 13.1251 15.5625C13.1251 15.0447 12.7053 14.625 12.1876 14.625C11.6698 14.625 11.2501 15.0447 11.2501 15.5625C11.2501 16.0803 11.6698 16.5 12.1876 16.5Z" stroke="#3B1E1C" strokeMiterlimit="10" strokeLinecap="round" strokeLinejoin="round"/>
<path d="M6.18756 16.5C6.70533 16.5 7.12506 16.0803 7.12506 15.5625C7.12506 15.0447 6.70533 14.625 6.18756 14.625C5.66979 14.625 5.25006 15.0447 5.25006 15.5625C5.25006 16.0803 5.66979 16.5 6.18756 16.5Z" stroke="#3B1E1C" strokeMiterlimit="10" strokeLinecap="round" strokeLinejoin="round"/>
<path d="M6.75006 6H15.7501" stroke="#3B1E1C" strokeMiterlimit="10" strokeLinecap="round" strokeLinejoin="round"/>
</svg>
