<svg width="52" height="51" viewBox="0 0 52 51" fill="none" xmlns="http://www.w3.org/2000/svg">
<g clip-path="url(#clip0_30_373)">
<rect x="26.3674" y="0.707107" width="35" height="35" transform="rotate(45 26.3674 0.707107)" stroke="#3B1E1C"/>
<rect x="26.3674" y="50" width="36" height="36" transform="rotate(45 26.3674 50)" fill="#3B1E1C"/>
<path d="M34.9116 16.6377L32.0644 33.2506C32.0644 33.2506 31.666 34.4025 30.5716 33.8501L24.0023 28.0204L23.9718 28.0032C24.8592 27.081 31.7402 19.9205 32.0409 19.5959C32.5065 19.0932 32.2175 18.7939 31.6769 19.1737L21.5128 26.6443L17.5915 25.1173C17.5915 25.1173 16.9744 24.8632 16.915 24.3108C16.8549 23.7575 17.6118 23.4582 17.6118 23.4582L33.5977 16.2001C33.5977 16.2001 34.9116 15.5319 34.9116 16.6377V16.6377Z" fill="#3B1E1C"/>
</g>
<defs>
<clipPath id="clip0_30_373">
<rect width="36" height="36" fill="white" transform="translate(26.3674) rotate(45)"/>
</clipPath>
</defs>
</svg>
