<svg width="38" height="31" viewBox="0 0 38 31" fill="none" xmlns="http://www.w3.org/2000/svg">
<path d="M1 18.98H10.2903C11.2774 18.98 12.0323 19.734 12.0323 20.72V30" stroke="#3B1E1C" strokeMiterlimit="10" strokeLinecap="square" strokeLinejoin="round"/>
<path d="M1 1V30" stroke="#3B1E1C" strokeMiterlimit="10" strokeLinecap="square" strokeLinejoin="round"/>
<path d="M4.48389 23.6201H12.0323" stroke="#3B1E1C" strokeMiterlimit="10" strokeLinecap="square" strokeLinejoin="round"/>
<path d="M37 18.98H27.7097C26.7226 18.98 25.9678 19.734 25.9678 20.72V30" stroke="#3B1E1C" strokeMiterlimit="10" strokeLinecap="square" strokeLinejoin="round"/>
<path d="M37 1V30" stroke="#3B1E1C" strokeMiterlimit="10" strokeLinecap="square" strokeLinejoin="round"/>
<path d="M33.5162 23.6201H25.9678" stroke="#3B1E1C" strokeMiterlimit="10" strokeLinecap="square" strokeLinejoin="round"/>
<path d="M6.22559 8.54027V15.5003L9.36107 14.3403C10.3482 13.9923 11.4514 13.9923 12.3804 14.3983L13.3675 14.8043C14.4127 15.2683 15.574 15.2683 16.5611 14.8043L17.5482 14.3983C18.5353 13.9923 19.5804 13.9343 20.5675 14.3403L22.0191 14.8623C23.0643 15.2683 24.2256 15.2103 25.2707 14.6883L25.5611 14.5143C26.5482 13.9923 27.7675 13.9343 28.8127 14.3403L31.774 15.4423V8.48227C31.774 7.84427 31.2514 7.32227 30.6127 7.32227H7.38688C6.74817 7.38027 6.22559 7.90227 6.22559 8.54027Z" stroke="#3B1E1C" strokeMiterlimit="10" strokeLinecap="square" strokeLinejoin="round"/>
<path d="M19 18.9805V30.0005" stroke="#3B1E1C" strokeMiterlimit="10" strokeLinecap="square" strokeLinejoin="round"/>
<path d="M15.5161 30H22.4839" stroke="#3B1E1C" strokeMiterlimit="10" strokeLinecap="round" strokeLinejoin="round"/>
<path d="M12.6129 5.06008L14.3549 1.58008H23.6452L21.9032 5.06008" stroke="#3B1E1C" strokeMiterlimit="10" strokeLinecap="round" strokeLinejoin="round"/>
<path d="M23.6453 1.58008L25.3872 5.06008" stroke="#3B1E1C" strokeMiterlimit="10" strokeLinecap="round" strokeLinejoin="round"/>
</svg>
