<svg width="38" height="38" viewBox="0 0 38 38" fill="none" xmlns="http://www.w3.org/2000/svg">
<path d="M19.0236 33.5161C11.0001 33.5161 4.48828 27.0129 4.48828 19C4.48828 10.9871 11.0001 4.48389 19.0236 4.48389" stroke="#3B1E1C" strokeMiterlimit="10" strokeLinecap="round" strokeLinejoin="round"/>
<path d="M19.0238 37C9.08164 37 1 28.929 1 19C1 9.07097 9.08164 1 19.0238 1" stroke="#3B1E1C" strokeMiterlimit="10" strokeLinecap="round" strokeLinejoin="round"/>
<path d="M9.72119 13.1934V24.8063" stroke="#3B1E1C" strokeMiterlimit="10" strokeLinecap="round" strokeLinejoin="round"/>
<path d="M14.3726 9.12891V28.8708" stroke="#3B1E1C" strokeMiterlimit="10" strokeLinecap="round" strokeLinejoin="round"/>
<path d="M19.0237 30.0321C19.6659 30.0321 20.1865 29.5121 20.1865 28.8708C20.1865 28.2294 19.6659 27.7095 19.0237 27.7095C18.3815 27.7095 17.8608 28.2294 17.8608 28.8708C17.8608 29.5121 18.3815 30.0321 19.0237 30.0321Z" fill="#3B1E1C"/>
<path d="M21.3495 36.9998H35.3034C35.3034 36.9998 29.4893 34.6772 28.3264 31.1934C27.1636 34.6772 21.3495 36.9998 21.3495 36.9998Z" stroke="#3B1E1C" strokeMiterlimit="10" strokeLinecap="square" strokeLinejoin="round"/>
<path d="M28.326 23.645V31.1934" stroke="#3B1E1C" strokeMiterlimit="10" strokeLinecap="round" strokeLinejoin="round"/>
<path d="M34.1405 1H22.5123L19.8959 12.7871C19.3145 15.9806 20.4773 19.2903 23.0355 21.2645C24.4891 22.4258 26.3496 23.0645 28.3845 23.0645C30.4195 23.0645 32.2219 22.3677 33.7335 21.2645C36.2917 19.2903 37.3964 15.9806 36.8732 12.7871L34.1405 1Z" stroke="#3B1E1C" strokeMiterlimit="10" strokeLinecap="round" strokeLinejoin="round"/>
<path d="M24.8378 13.7744H36.466" stroke="#3B1E1C" strokeMiterlimit="10" strokeLinecap="round" strokeLinejoin="round"/>
</svg>
