<svg width="38" height="38" viewBox="0 0 38 38" fill="none" xmlns="http://www.w3.org/2000/svg">
<path d="M7.96774 18.3916H37C37 20.6525 35.2 22.4496 32.9355 22.4496H5.06452C2.8 22.4496 1 20.6525 1 18.3916H3.32258" stroke="#3B1E1C" strokeMiterlimit="10" strokeLinecap="round" strokeLinejoin="round"/>
<path d="M2.21936 18.3912C2.85807 10.0434 10.1161 3.89844 19 3.89844C27.8839 3.89844 35.2 10.0434 35.7806 18.3912" stroke="#3B1E1C" strokeMiterlimit="10" strokeLinecap="round" strokeLinejoin="round"/>
<path d="M8.54834 13.0582C9.70963 11.4351 11.4516 9.69592 13.1935 9.11621" stroke="#3B1E1C" strokeMiterlimit="10" strokeLinecap="round" strokeLinejoin="round"/>
<path d="M16.0968 36.942C16.0968 36.942 19.2323 32.7681 21.9033 31.1449C24.8065 29.4057 28.871 23.0289 32.9355 22.4492" stroke="#3B1E1C" strokeMiterlimit="10" strokeLinecap="round"/>
<path d="M9.70968 23.0293C9.70968 23.0293 9.24516 25.2322 9.53548 27.3771C9.59354 27.9568 9.36129 28.4786 9.0129 28.8844C8.02581 29.8699 6.4 31.9568 6.80645 35.2612C6.80645 35.2612 5.64516 36.4206 5.06451 37.0003" stroke="#3B1E1C" strokeMiterlimit="10" strokeLinecap="round" strokeLinejoin="round"/>
<path d="M12.6129 22.4491L13.0774 24.1882C13.1935 24.536 13.1935 24.9418 13.1935 25.2897V27.6085C13.1935 28.594 13.9483 29.3476 14.9354 29.3476H15.5161C15.5161 29.3476 16.6774 22.3911 19 22.3911" stroke="#3B1E1C" strokeMiterlimit="10" strokeLinecap="round" strokeLinejoin="round"/>
<path d="M15.5162 29.4058C15.5162 29.4058 11.5097 30.2753 10.5226 34.0434" stroke="#3B1E1C" strokeMiterlimit="10" strokeLinecap="round"/>
<path d="M21.3226 22.4492C21.3226 22.4492 19.5806 25.3478 19.5806 27.6666L26.5484 22.4492" stroke="#3B1E1C" strokeMiterlimit="10" strokeLinecap="round" strokeLinejoin="round"/>
<path d="M16.6774 3.31884C16.6774 2.04348 17.7226 1 19 1C20.2774 1 21.3226 2.04348 21.3226 3.31884" stroke="#3B1E1C" strokeMiterlimit="10" strokeLinecap="round" strokeLinejoin="round"/>
</svg>
