<svg width="219" height="98" viewBox="0 0 219 98" fill="none" xmlns="http://www.w3.org/2000/svg">
<path d="M87.8823 21.2395L83.4331 25.6059L109.496 51.1834L113.945 46.817L87.8823 21.2395Z" fill="#3B1E1C"/>
<path d="M109.499 0.0166859L105.05 4.38303L131.113 29.9605L135.562 25.5942L109.499 0.0166859Z" fill="#3B1E1C"/>
<path d="M109.492 0L83.4287 25.5775L87.8779 29.9438L113.941 4.36634L109.492 0Z" fill="#3B1E1C"/>
<path d="M113.135 38.8836L105.049 46.8184L109.498 51.1847L117.584 43.2499L113.135 38.8836Z" fill="#3B1E1C"/>
<path d="M115.844 27.4733L111.395 31.8396L124.427 44.6284L128.876 40.262L115.844 27.4733Z" fill="#3B1E1C"/>
<path d="M131.122 21.2364L123.037 29.1712L127.486 33.5376L135.572 25.6028L131.122 21.2364Z" fill="#3B1E1C"/>
<path fill-rule="evenodd" clip-rule="evenodd" d="M14.6316 59.6739C16.7805 59.6739 18.7714 60.0172 20.5727 60.6726C22.374 61.3592 23.9225 62.2955 25.1866 63.5439C26.4823 64.7924 27.4619 66.2904 28.1887 68.0694C28.9156 69.8172 29.2632 71.7834 29.2632 73.9681C29.2632 75.872 28.9472 77.651 28.3468 79.3051C27.7463 80.9592 26.8931 82.4261 25.8186 83.7057C24.7126 84.9853 23.4485 86.0465 21.9316 86.8892C20.4463 87.7318 18.803 88.2936 17.0333 88.5745L16.9701 88.793C18.1078 89.2299 19.2455 89.6981 20.3515 90.1974C21.4576 90.6968 22.532 91.1962 23.6065 91.6643C24.8074 92.2261 25.9134 92.7255 26.8931 93.1312C27.8727 93.5369 28.7892 93.8803 29.6424 94.1299C30.4957 94.3796 31.2857 94.5981 32.0442 94.7229C32.8026 94.8478 33.5294 94.9102 34.2247 94.9102C35.1095 94.9102 35.9628 94.7853 36.816 94.5669C37.6693 94.3484 38.5857 94.0363 39.597 93.6618L40.1342 94.6293C38.3013 95.7529 36.6896 96.5955 35.3307 97.1573C33.9719 97.7191 32.6762 98 31.4121 98C30.7485 98 30.1165 97.9376 29.516 97.8439C28.9156 97.7191 28.2836 97.5318 27.6199 97.2822C26.9563 97.0013 26.261 96.6892 25.5342 96.2834C24.7758 95.8777 23.9857 95.3783 23.1009 94.7853C21.5208 93.7554 20.1303 92.8815 18.961 92.1637C17.7918 91.4459 16.7173 90.8529 15.8009 90.3847C14.8844 89.9166 14.0628 89.542 13.3359 89.2611C12.6091 88.9802 11.9455 88.793 11.2818 88.6369C9.63853 88.2936 8.12164 87.7318 6.73117 86.9516C5.34069 86.1401 4.17143 85.1414 3.16017 83.9554C2.14892 82.7694 1.39048 81.365 0.821645 79.8045C0.252813 78.2127 0 76.4962 0 74.5923C0 72.4388 0.34762 70.4414 1.07446 68.6312C1.8013 66.821 2.78095 65.2605 4.07662 63.9185C5.37229 62.5764 6.88918 61.5777 8.69048 60.8287C10.4602 60.0484 12.4511 59.6739 14.6316 59.6739ZM14.4736 61.2344C13.1147 61.2344 11.819 61.4529 10.555 61.8898C9.29091 62.3268 8.18485 63.0134 7.2368 63.9809C6.28875 64.9484 5.5303 66.1968 4.92987 67.7573C4.36104 69.3178 4.07662 71.1904 4.07662 73.4376C4.07662 76.0592 4.42424 78.2439 5.08788 80.0229C5.75151 81.8019 6.60476 83.2064 7.67922 84.2987C8.72208 85.3599 9.89134 86.1401 11.2186 86.6083C12.5143 87.0764 13.81 87.2949 15.074 87.2949C16.4329 87.2949 17.7286 87.0764 18.961 86.6395C20.1935 86.2025 21.268 85.5159 22.216 84.5484C23.1325 83.5809 23.8909 82.3325 24.4281 80.772C24.997 79.2115 25.2498 77.3389 25.2498 75.0917C25.2498 72.4701 24.9338 70.2853 24.2701 68.5064C23.6381 66.7274 22.7848 65.3229 21.742 64.2306C20.6991 63.1694 19.5615 62.3892 18.2974 61.921C17.0017 61.4841 15.7377 61.2344 14.4736 61.2344ZM47.2762 78.7745V65.2293C47.2762 64.5115 47.3394 63.9185 47.4342 63.4191C47.5606 62.9509 47.7502 62.5452 48.0346 62.2643C48.319 61.9522 48.7299 61.765 49.2671 61.6089C49.8043 61.4841 50.4996 61.3904 51.3212 61.328L51.2264 60.2981C50.8788 60.2981 50.4996 60.2981 50.0571 60.3293C49.6147 60.3293 49.1407 60.3293 48.6667 60.3293C48.161 60.3293 47.687 60.3293 47.213 60.3293C46.739 60.3293 46.2965 60.3605 45.8857 60.3605C45.3801 60.3605 44.8745 60.3605 44.3056 60.3293C43.7368 60.3293 43.168 60.3293 42.6307 60.3293C42.0935 60.3293 41.5879 60.3293 41.1139 60.3293C40.6398 60.3293 40.229 60.2981 39.8498 60.2981L39.7866 61.3904C40.6714 61.4216 41.3983 61.5153 41.9039 61.6089C42.4411 61.7338 42.852 61.8898 43.1364 62.1395C43.4208 62.358 43.6104 62.6389 43.7052 62.9822C43.8 63.3255 43.8316 63.7 43.8316 64.1682V79.7732C43.8316 81.3338 44.116 82.6758 44.6848 83.8306C45.2537 84.9854 46.0121 85.9217 46.9918 86.7019C47.9398 87.451 49.0459 88.0127 50.2784 88.3873C51.5108 88.7618 52.8065 88.949 54.1654 88.949C55.5558 88.949 56.9147 88.7618 58.242 88.3873C59.5693 88.0127 60.7701 87.3885 61.813 86.5459C62.8875 85.7032 63.7091 84.6108 64.3727 83.3C65.0364 81.958 65.3524 80.3662 65.3524 78.4312V66.072C65.3524 65.0108 65.4156 64.1994 65.5104 63.5751C65.6368 62.9509 65.858 62.514 66.174 62.2019C66.49 61.8898 66.9325 61.6713 67.4697 61.5777C68.0069 61.4529 68.7022 61.3904 69.587 61.2968L69.5554 60.2981C68.9234 60.2981 68.1333 60.3293 67.1853 60.3605C66.2372 60.3917 65.3208 60.3917 64.4675 60.3917C63.3931 60.3917 62.3818 60.3917 61.4022 60.3605C60.4225 60.3293 59.6009 60.3293 58.9056 60.3293L58.8424 61.4217C59.8221 61.4841 60.6121 61.5777 61.2126 61.6713C61.8446 61.7962 62.3186 62.0146 62.6662 62.2955C63.0139 62.5764 63.2667 62.9822 63.3931 63.5127C63.5195 64.0433 63.5827 64.7299 63.5827 65.6038V77.8694C63.5827 79.4611 63.3615 80.8032 62.9191 81.9267C62.4766 83.0503 61.8762 83.9554 61.1177 84.6733C60.3593 85.3911 59.5061 85.8904 58.5264 86.2338C57.5468 86.5459 56.5355 86.7019 55.461 86.7019C54.4182 86.7019 53.4069 86.5459 52.3957 86.265C51.416 85.9529 50.5312 85.4847 49.7411 84.8605C48.9511 84.2363 48.3507 83.4248 47.8766 82.3949C47.4974 81.3962 47.2762 80.179 47.2762 78.7745ZM95.6584 78.0255H85.8935L83.5866 83.7682C83.2074 84.8917 82.9862 85.5783 82.9862 85.8592C82.9862 86.3586 83.239 86.7331 83.713 86.9204C84.187 87.1076 85.0719 87.2325 86.3359 87.2949L86.2411 88.3873C85.5143 88.3873 84.6926 88.3873 83.7762 88.3561C82.8597 88.3248 81.9749 88.3248 81.0584 88.3248C80.3316 88.3248 79.5732 88.3248 78.7831 88.3561C77.9931 88.3873 77.2346 88.3873 76.5078 88.3873L76.4446 87.3573C77.203 87.2949 77.8351 87.2013 78.3407 87.0764C78.8463 86.9516 79.2571 86.7331 79.6364 86.3898C80.0156 86.0465 80.3316 85.5783 80.6792 84.9854C80.9952 84.3924 81.3745 83.6121 81.8169 82.6134L90.2229 62.7637C90.4758 62.1707 90.6654 61.6713 90.8234 61.2032C90.9814 60.7662 91.171 60.2981 91.3606 59.7987L93.3515 59.6115C93.5727 60.5478 93.7939 61.4217 94.0468 62.2019C94.2996 62.9822 94.5208 63.7 94.742 64.3242L101.41 83.3936C101.694 84.2363 101.979 84.9229 102.2 85.3911C102.453 85.8592 102.706 86.265 103.053 86.5146C103.369 86.7643 103.78 86.9516 104.254 87.0452C104.728 87.1389 105.392 87.2013 106.15 87.2637L106.055 88.3561C105.234 88.3561 104.317 88.356 103.306 88.3248C102.295 88.2936 101.315 88.2936 100.304 88.2936C99.4823 88.2936 98.629 88.2936 97.7758 88.3248C96.9225 88.356 96.1009 88.3561 95.2476 88.3561L95.1528 87.3261C96.2589 87.2325 97.0489 87.1076 97.5229 86.9516C97.997 86.7643 98.2498 86.421 98.2498 85.9217C98.2182 85.7032 98.155 85.4223 98.0602 85.1726C97.9654 84.8917 97.8706 84.5796 97.8074 84.2363L95.6584 78.0255ZM86.5256 76.3401H95.0896L91.1394 64.7299L86.5256 76.3401ZM115.062 60.2981C115.757 60.2981 116.642 60.2981 117.653 60.3293C118.665 60.3605 119.676 60.3605 120.687 60.3605C121.698 60.3605 122.741 60.2981 123.847 60.2045C124.953 60.1108 125.996 60.0484 127.039 60.0484C129.156 60.0484 131.21 60.2669 133.201 60.7038C135.161 61.1407 136.93 61.8898 138.447 62.9197C139.964 63.9497 141.197 65.2917 142.113 66.9771C143.029 68.6624 143.472 70.6911 143.472 73.0943C143.472 75.5911 143.029 77.807 142.113 79.7108C141.197 81.6459 139.996 83.2688 138.447 84.5796C136.899 85.9216 135.097 86.9204 133.075 87.607C131.021 88.2936 128.872 88.6369 126.597 88.6369C125.585 88.6369 124.511 88.5745 123.373 88.4497C122.236 88.3248 121.161 88.2624 120.15 88.2624C119.771 88.2624 119.328 88.2624 118.886 88.2624C118.443 88.2624 118.001 88.2936 117.527 88.2936C117.084 88.2936 116.642 88.2936 116.231 88.2936C115.82 88.2936 115.441 88.3248 115.125 88.3248L115.03 87.2949C115.852 87.2325 116.547 87.1389 117.053 87.0452C117.558 86.9204 117.969 86.7331 118.254 86.4522C118.538 86.1713 118.696 85.828 118.791 85.3599C118.886 84.9229 118.917 84.2987 118.917 83.5497V64.0121C118.917 63.4815 118.886 63.0758 118.791 62.7325C118.728 62.3892 118.538 62.1395 118.285 61.921C118.032 61.7025 117.622 61.5777 117.116 61.4841C116.579 61.3904 115.884 61.328 114.999 61.2968L115.062 60.2981ZM122.394 83.1439C122.394 83.7057 122.425 84.2363 122.457 84.7045C122.488 85.1726 122.646 85.6096 122.899 85.9529C123.152 86.2962 123.563 86.5771 124.132 86.7643C124.7 86.9516 125.522 87.0452 126.597 87.0452C128.524 87.0452 130.262 86.7331 131.842 86.1713C133.423 85.5783 134.75 84.7045 135.887 83.5809C137.025 82.4573 137.878 81.0841 138.51 79.4611C139.142 77.8382 139.427 76.028 139.427 73.9994C139.427 71.9395 139.111 70.1293 138.479 68.5688C137.847 67.0083 136.962 65.7287 135.824 64.6987C134.687 63.6376 133.359 62.8573 131.811 62.358C130.262 61.8274 128.619 61.5777 126.818 61.5777C126.186 61.5777 125.617 61.6089 125.08 61.7025C124.542 61.7962 124.068 61.8898 123.689 62.0146C123.31 62.1395 122.994 62.2955 122.773 62.4516C122.552 62.6076 122.425 62.7637 122.425 62.9509V83.1439H122.394ZM161.896 84.642C161.896 85.1102 161.927 85.5159 161.99 85.828C162.054 86.1401 162.212 86.421 162.465 86.6395C162.717 86.858 163.097 87.014 163.634 87.1076C164.139 87.2325 164.866 87.2637 165.783 87.2949L165.719 88.3873C164.771 88.3873 163.792 88.3873 162.781 88.3561C161.769 88.3248 160.79 88.3248 159.842 88.3248C159.462 88.3248 159.052 88.3248 158.609 88.3248C158.167 88.3248 157.693 88.3561 157.25 88.3561C156.808 88.3561 156.397 88.3561 156.018 88.3561C155.639 88.3561 155.291 88.3873 155.007 88.3873L154.943 87.3573C155.702 87.2949 156.334 87.2013 156.808 87.0764C157.282 86.9516 157.629 86.7643 157.882 86.4834C158.135 86.2025 158.293 85.8592 158.388 85.3911C158.483 84.9541 158.514 84.3299 158.514 83.5809V63.9185C158.514 63.4503 158.483 63.0758 158.388 62.7637C158.293 62.4516 158.135 62.2019 157.914 61.9834C157.661 61.765 157.282 61.6089 156.808 61.5153C156.302 61.4217 155.67 61.3592 154.817 61.328L154.88 60.2357C155.196 60.2357 155.575 60.2357 155.986 60.2669C156.397 60.2669 156.871 60.2669 157.377 60.2669C157.882 60.2669 158.388 60.2669 158.894 60.2981C159.399 60.2981 159.905 60.2981 160.379 60.2981C161.169 60.2981 161.959 60.2357 162.749 60.142C163.539 60.0484 164.361 59.986 165.182 59.986C166.352 59.986 167.552 60.0796 168.753 60.2669C169.954 60.4541 171.029 60.8286 171.977 61.328C172.925 61.8274 173.715 62.514 174.315 63.3879C174.916 64.2618 175.2 65.3541 175.2 66.7274C175.2 67.6325 175.074 68.4751 174.789 69.2866C174.505 70.0981 174.094 70.8159 173.588 71.4713C173.083 72.1267 172.482 72.6885 171.755 73.1879C171.06 73.6872 170.302 74.093 169.448 74.4051C170.081 75.5911 170.681 76.7147 171.313 77.807C171.913 78.8994 172.482 79.8981 172.988 80.8032C173.525 81.7083 173.999 82.4885 174.41 83.1751C174.821 83.8618 175.168 84.3924 175.453 84.7669C175.832 85.2662 176.148 85.672 176.432 85.9841C176.717 86.2962 177.001 86.5146 177.349 86.6707C177.665 86.8267 178.044 86.9516 178.487 87.0452C178.929 87.1076 179.498 87.1701 180.161 87.2325L180.098 88.3248C179.498 88.3248 178.739 88.3248 177.76 88.2936C176.812 88.2624 175.864 88.2624 174.979 88.2624C174.694 88.2624 174.41 88.2624 174.094 88.2624C173.746 88.2624 173.462 88.2936 173.177 88.3248C172.988 87.9191 172.672 87.3261 172.261 86.5146C171.85 85.7344 171.376 84.7981 170.776 83.7682C170.207 82.7382 169.575 81.5834 168.88 80.3662C168.184 79.149 167.458 77.9006 166.731 76.621C166.604 76.4337 166.51 76.2465 166.383 76.0904C166.257 75.9344 166.13 75.8096 165.972 75.7159C165.814 75.5911 165.593 75.5287 165.309 75.4662C165.024 75.4038 164.677 75.3726 164.203 75.3726H163.318C163.16 75.3726 162.97 75.3726 162.717 75.3726C162.496 75.3726 162.212 75.3414 161.896 75.3102V84.642ZM161.896 73.9994C162.054 74.0306 162.212 74.0306 162.37 74.0618C162.528 74.0618 162.686 74.0618 162.844 74.0618H163.792C166.13 74.0618 167.963 73.5312 169.227 72.4701C170.523 71.4089 171.155 69.6924 171.155 67.3516C171.155 65.3541 170.523 63.8873 169.322 62.9822C168.09 62.0771 166.478 61.6089 164.455 61.6089C163.823 61.6089 163.349 61.6713 163.002 61.765C162.654 61.8898 162.401 62.0458 162.243 62.2643C162.085 62.4828 161.99 62.7325 161.959 63.0446C161.927 63.3567 161.896 63.7 161.896 64.1057V73.9994ZM204.337 59.6739C206.486 59.6739 208.477 60.0172 210.278 60.6726C212.079 61.3592 213.628 62.2955 214.923 63.5439C216.219 64.7924 217.23 66.2904 217.926 68.0694C218.652 69.8484 219 71.8146 219 73.9994C219 76.1529 218.652 78.1503 217.926 79.9917C217.23 81.8331 216.219 83.3936 214.923 84.7357C213.628 86.0777 212.111 87.0764 210.31 87.8255C208.508 88.5745 206.517 88.949 204.305 88.949C202.156 88.949 200.165 88.6057 198.364 87.9503C196.563 87.2637 195.014 86.3274 193.719 85.079C192.423 83.8306 191.412 82.3325 190.685 80.5535C189.958 78.7745 189.61 76.8083 189.61 74.6236C189.61 72.4701 189.958 70.4726 190.685 68.6312C191.38 66.7898 192.391 65.2293 193.687 63.8873C194.983 62.5452 196.5 61.5465 198.301 60.7975C200.165 60.0484 202.156 59.6739 204.337 59.6739ZM204.179 61.2344C202.82 61.2344 201.493 61.4529 200.26 61.8898C198.996 62.3268 197.89 63.0446 196.91 64.0121C195.962 64.9796 195.172 66.2592 194.603 67.8197C194.035 69.3803 193.75 71.2529 193.75 73.5C193.75 76.1216 194.066 78.3064 194.73 80.0854C195.393 81.8643 196.215 83.3 197.258 84.3924C198.301 85.4847 199.439 86.2338 200.734 86.7019C201.998 87.1701 203.294 87.3885 204.558 87.3885C205.917 87.3885 207.244 87.1701 208.477 86.7331C209.741 86.2962 210.847 85.5783 211.826 84.6108C212.774 83.6433 213.564 82.3637 214.133 80.8032C214.702 79.2427 214.987 77.3701 214.987 75.1229C214.987 72.5013 214.671 70.3166 214.007 68.5376C213.343 66.7586 212.522 65.3229 211.479 64.2306C210.436 63.1382 209.298 62.3892 208.003 61.921C206.707 61.4841 205.443 61.2344 204.179 61.2344Z" fill="#3B1E1C"/>
</svg>
